<svg width="24" height="24" viewBox="0 0 24 24" fill="none" xmlns="http://www.w3.org/2000/svg">
<g clip-path="url(#clip0_0_1698)">
<mask id="mask0_0_1698" style="mask-type:luminance" maskUnits="userSpaceOnUse" x="0" y="5" width="9" height="14">
<path d="M0.756104 5.19952H8.60829V18.7995H0.756104V5.19952Z" fill="white"/>
</mask>
<g mask="url(#mask0_0_1698)">
<mask id="mask1_0_1698" style="mask-type:luminance" maskUnits="userSpaceOnUse" x="0" y="0" width="24" height="24">
<path d="M22.9635 9.90926H12.2519V14.3503H18.4177C17.8428 17.1717 15.4393 18.7914 12.2519 18.7914C8.48978 18.7914 5.45916 15.761 5.45916 11.9991C5.45916 8.23733 8.48978 5.20695 12.2519 5.20695C13.8717 5.20695 15.3348 5.7817 16.4843 6.72214L19.8284 3.37832C17.7906 1.60189 15.178 0.5047 12.2519 0.5047C5.87716 0.5047 0.75647 5.62495 0.75647 11.9991C0.75647 18.3734 5.87716 23.4936 12.2519 23.4936C17.9996 23.4936 23.2248 19.3138 23.2248 11.9991C23.2248 11.32 23.1203 10.5885 22.9635 9.90926Z" fill="white"/>
</mask>
<g mask="url(#mask1_0_1698)">
<path d="M-0.288696 18.7912V5.20679L8.59412 11.999L-0.288696 18.7912Z" fill="#FBBC05"/>
</g>
</g>
<mask id="mask2_0_1698" style="mask-type:luminance" maskUnits="userSpaceOnUse" x="0" y="0" width="24" height="12">
<path d="M0.756104 0.495544H23.2244V11.9995H0.756104V0.495544Z" fill="white"/>
</mask>
<g mask="url(#mask2_0_1698)">
<mask id="mask3_0_1698" style="mask-type:luminance" maskUnits="userSpaceOnUse" x="0" y="0" width="24" height="24">
<path d="M22.9635 9.90932H12.2519V14.3504H18.4177C17.8428 17.1718 15.4393 18.7914 12.2519 18.7914C8.48978 18.7914 5.45916 15.7611 5.45916 11.9992C5.45916 8.23739 8.48978 5.20701 12.2519 5.20701C13.8717 5.20701 15.3348 5.78176 16.4843 6.7222L19.8284 3.37839C17.7906 1.60195 15.178 0.504761 12.2519 0.504761C5.87716 0.504761 0.75647 5.62501 0.75647 11.9992C0.75647 18.3734 5.87716 23.4937 12.2519 23.4937C17.9996 23.4937 23.2248 19.3139 23.2248 11.9992C23.2248 11.32 23.1203 10.5885 22.9635 9.90932Z" fill="white"/>
</mask>
<g mask="url(#mask3_0_1698)">
<path d="M-0.288574 5.20697L8.59424 11.9992L12.2519 8.81209L24.7923 6.7744V-0.540283H-0.288574V5.20697Z" fill="#EA4335"/>
</g>
</g>
<mask id="mask4_0_1698" style="mask-type:luminance" maskUnits="userSpaceOnUse" x="0" y="0" width="24" height="24">
<path d="M0.756104 0.495544H23.2244V23.4929H0.756104V0.495544Z" fill="white"/>
</mask>
<g mask="url(#mask4_0_1698)">
<mask id="mask5_0_1698" style="mask-type:luminance" maskUnits="userSpaceOnUse" x="0" y="0" width="24" height="24">
<path d="M22.9635 9.90932H12.2519V14.3504H18.4177C17.8428 17.1718 15.4393 18.7914 12.2519 18.7914C8.48978 18.7914 5.45916 15.7611 5.45916 11.9992C5.45916 8.23739 8.48978 5.20701 12.2519 5.20701C13.8717 5.20701 15.3348 5.78176 16.4843 6.7222L19.8284 3.37839C17.7906 1.60195 15.178 0.504761 12.2519 0.504761C5.87716 0.504761 0.75647 5.62501 0.75647 11.9992C0.75647 18.3734 5.87716 23.4937 12.2519 23.4937C17.9996 23.4937 23.2248 19.3139 23.2248 11.9992C23.2248 11.32 23.1203 10.5885 22.9635 9.90932Z" fill="white"/>
</mask>
<g mask="url(#mask5_0_1698)">
<path d="M-0.288574 18.7914L15.387 6.7744L19.5149 7.2969L24.7923 -0.540283V24.5387H-0.288574V18.7914Z" fill="#34A853"/>
</g>
</g>
<mask id="mask6_0_1698" style="mask-type:luminance" maskUnits="userSpaceOnUse" x="6" y="5" width="18" height="19">
<path d="M6.49609 5.19952H23.2242V23.4928H6.49609V5.19952Z" fill="white"/>
</mask>
<g mask="url(#mask6_0_1698)">
<mask id="mask7_0_1698" style="mask-type:luminance" maskUnits="userSpaceOnUse" x="0" y="0" width="24" height="24">
<path d="M22.9633 9.90926H12.2517V14.3503H18.4174C17.8426 17.1717 15.439 18.7914 12.2517 18.7914C8.48954 18.7914 5.45891 15.761 5.45891 11.9991C5.45891 8.23733 8.48954 5.20695 12.2517 5.20695C13.8715 5.20695 15.3345 5.7817 16.484 6.72214L19.8282 3.37832C17.7903 1.60189 15.1778 0.5047 12.2517 0.5047C5.87691 0.5047 0.756226 5.62495 0.756226 11.9991C0.756226 18.3734 5.87691 23.4936 12.2517 23.4936C17.9993 23.4936 23.2245 19.3138 23.2245 11.9991C23.2245 11.32 23.12 10.5885 22.9633 9.90926Z" fill="white"/>
</mask>
<g mask="url(#mask7_0_1698)">
<path d="M24.792 24.5385L8.59397 11.999L6.50391 10.4316L24.792 5.20679V24.5385Z" fill="#4285F4"/>
</g>
</g>
</g>
<defs>
<clipPath id="clip0_0_1698">
<rect width="24" height="24" fill="white"/>
</clipPath>
</defs>
</svg>
