<svg width="24" height="24" viewBox="0 0 24 24" fill="none" xmlns="http://www.w3.org/2000/svg">
<path d="M8.99927 12H12.7493M8.99927 15H12.7493M8.99927 18H12.7493M15.7493 18.75H17.9993C18.596 18.75 19.1683 18.5129 19.5903 18.091C20.0122 17.669 20.2493 17.0967 20.2493 16.5V6.108C20.2493 4.973 19.4043 4.01 18.2733 3.916C17.8993 3.88498 17.5249 3.85831 17.1503 3.836M17.1503 3.836C17.2166 4.05109 17.2493 4.27491 17.2493 4.5C17.2493 4.69891 17.1703 4.88968 17.0296 5.03033C16.8889 5.17098 16.6982 5.25 16.4993 5.25H11.9993C11.5853 5.25 11.2493 4.914 11.2493 4.5C11.2493 4.269 11.2843 4.046 11.3493 3.836M17.1503 3.836C16.8673 2.918 16.0113 2.25 14.9993 2.25H13.4993C13.0185 2.25011 12.5504 2.40414 12.1635 2.68954C11.7766 2.97493 11.4913 3.3767 11.3493 3.836M11.3493 3.836C10.9733 3.859 10.5993 3.886 10.2253 3.916C9.09427 4.01 8.24927 4.973 8.24927 6.108V8.25M8.24927 8.25H4.87427C4.25327 8.25 3.74927 8.754 3.74927 9.375V20.625C3.74927 21.246 4.25327 21.75 4.87427 21.75H14.6243C15.2453 21.75 15.7493 21.246 15.7493 20.625V9.375C15.7493 8.754 15.2453 8.25 14.6243 8.25H8.24927ZM6.74927 12H6.75727V12.008H6.74927V12ZM6.74927 15H6.75727V15.008H6.74927V15ZM6.74927 18H6.75727V18.008H6.74927V18Z" stroke="#85868B" stroke-width="1.5" stroke-linecap="round" stroke-linejoin="round"/>
</svg>
