<svg width="20" height="20" viewBox="0 0 20 20" fill="none" xmlns="http://www.w3.org/2000/svg">
<path d="M16 14.8082H17C18.105 14.8082 19 13.9255 19 12.8356V9.87672C19 8.78685 18.105 7.90411 17 7.90411H16C15.448 7.90411 15 8.34598 15 8.89042V13.8219C15 14.3664 15.448 14.8082 16 14.8082ZM16 14.8082L16 15.7945C16 16.8844 15.105 17.7671 14 17.7671H11.875M16.5 7.90411V7.41096C16.5 3.87014 13.59 1 10 1C6.41 1 3.5 3.87014 3.5 7.41096V7.90411M11.875 17.7671C11.875 17.0866 11.315 16.5342 10.625 16.5342H9.375C8.685 16.5342 8.125 17.0866 8.125 17.7671C8.125 18.4477 8.685 19 9.375 19H10.625C11.315 19 11.875 18.4477 11.875 17.7671ZM4 14.8082H3C1.895 14.8082 1 13.9255 1 12.8356V9.87672C1 8.78685 1.895 7.90411 3 7.90411H4C4.552 7.90411 5 8.34598 5 8.89042V13.8219C5 14.3664 4.552 14.8082 4 14.8082Z" stroke="#171717" stroke-width="1.5" stroke-linecap="round" stroke-linejoin="round"/>
</svg>
