<svg width="121" height="33" viewBox="0 0 121 33" fill="none" xmlns="http://www.w3.org/2000/svg">
<g clip-path="url(#clip0_0_1612)">
<path d="M20.2549 3.03375C19.8073 2.88232 19.2811 2.73782 18.6853 2.63378C18.2421 2.55656 17.8296 2.51379 17.4574 2.49298C16.8334 2.46894 16.0933 2.49529 15.2749 2.6354C13.5065 2.93804 11.7727 4.05726 10.9229 4.60011C11.2985 3.93403 12.4409 2.41622 13.7865 1.65212C14.1971 1.41884 14.5938 1.25585 14.9512 1.14048C15.2363 1.05401 15.6545 0.962688 16.1632 0.975173C16.8151 0.991125 17.3557 1.09724 17.6599 1.23203C18.0287 1.36289 18.4194 1.66322 18.8448 1.92886C19.4302 2.29438 19.8841 2.68788 20.2547 3.03375H20.2549Z" fill="url(#paint0_linear_0_1612)"/>
<path d="M19.3487 16.7993C18.9466 16.5762 18.456 16.7586 18.22 16.8511C17.0931 17.2929 16.1452 17.762 15.3936 18.069C14.9562 18.2477 14.4258 18.432 13.2791 18.571C12.0392 18.7212 10.651 18.8893 8.87014 18.6933C8.16291 18.6153 7.16806 18.4554 6.00006 18.0928C5.42484 17.8413 4.32989 17.2707 3.37643 16.1029C2.4847 15.0108 2.1356 13.9093 1.99063 13.3066C1.94278 12.76 1.92844 11.7763 2.32957 10.6455C2.74873 9.46387 3.43631 8.70577 3.81779 8.28985C4.25429 7.81405 4.69911 7.4506 5.23734 7.0111C5.72886 6.60974 6.21923 6.32467 6.53343 6.1048C6.33691 6.15058 6.09924 6.17717 5.88793 6.21624C5.80562 6.23127 5.72609 6.2567 5.65118 6.29369C4.79876 6.71563 3.4518 7.5232 2.23732 8.97257C0.998105 10.4513 0.498488 11.8584 0.417338 12.1511C0.148687 13.12 -0.214755 14.9247 0.162327 17.1387C0.518371 19.2292 1.37449 20.7451 1.92359 21.5691C2.29951 22.0218 2.91727 22.6588 3.82773 23.1974C4.0506 23.3292 4.99527 23.8718 6.5614 24.1477C9.09972 24.5946 11.4038 24.0115 12.637 23.6067C13.4853 23.344 14.5072 22.9454 15.595 22.3268C17.1787 21.4262 18.3268 20.3868 19.0974 19.5663C19.8636 18.7506 19.9387 17.4157 19.5776 16.9875C19.4805 16.8724 19.3491 16.7993 19.3491 16.7993H19.3487Z" fill="url(#paint1_linear_0_1612)"/>
<path d="M2.94414 15.5557C2.94182 14.8397 2.99824 13.9655 3.19291 12.9882C3.34943 12.2022 3.56213 11.5171 3.77807 10.9454C4.05828 10.2227 4.5068 9.41647 4.97543 8.56544C5.50048 7.61175 6.01952 6.77851 6.53324 6.1048C5.86855 6.46617 4.85383 7.11213 3.9406 8.13425C3.16447 9.00309 2.63526 9.79725 2.34487 10.4314C2.14674 10.9072 1.72249 12.1582 2.03623 13.6229C2.22581 14.5081 2.66786 15.1675 2.94414 15.5555V15.5557Z" fill="url(#paint2_linear_0_1612)"/>
<path d="M12.1586 18.7412C9.83535 19.0221 8.06992 18.6887 7.06722 18.4515C6.18104 18.242 5.59704 17.9565 5.20747 17.7156C4.94853 17.5554 4.76797 17.4178 4.63063 17.3112C4.19159 16.97 3.57175 16.4144 2.94405 15.5555C2.92764 14.9387 2.95446 14.1064 3.13433 13.1423C3.37107 11.8726 3.75301 10.9443 4.07784 10.2318C4.39227 9.54187 4.77906 8.78816 5.2551 7.9977C5.75379 7.17001 6.26312 6.44706 6.74655 5.82583C7.18259 5.32552 7.67804 4.80348 8.23939 4.27681C9.2199 3.35665 10.1861 2.62352 11.0605 2.04299C11.5245 1.79029 12.0465 1.53528 12.6259 1.29599C13.4168 0.969306 14.1578 0.736722 14.8181 0.568872C15.3008 0.495814 15.9755 0.456742 16.7488 0.617193C18.4793 0.976242 19.5378 2.09154 19.919 2.53844L20.2825 3.04338L19.7845 2.61682C19.4728 2.37082 19.1292 2.11836 18.7529 1.86658C18.4946 1.69388 18.2419 1.53574 17.9973 1.39101C17.8731 1.31749 17.7414 1.25738 17.6043 1.21276C17.1839 1.07612 16.5243 0.929309 15.7249 1.01393C14.9157 1.09947 14.3085 1.38569 13.9655 1.58082C13.381 1.92993 12.5829 2.49683 11.8169 3.37329C11.1784 4.10411 10.7631 4.82059 10.4959 5.37523C10.15 6.10235 9.79489 6.97049 9.49202 7.97042C9.18244 8.99254 8.99448 9.93143 8.87958 10.742C8.80074 11.3861 8.74086 12.0857 8.71404 12.8348C8.68329 13.6895 8.6997 14.4849 8.74433 15.2099C8.80698 15.5269 8.91865 15.9345 9.12673 16.3804C9.34798 16.8544 9.60692 17.2188 9.82101 17.4772C9.98424 17.6645 10.199 17.8742 10.4753 18.071C11.118 18.5287 11.7654 18.6827 12.1589 18.741L12.1586 18.7412Z" fill="url(#paint3_linear_0_1612)"/>
<path d="M10.4852 18.0642C10.3414 17.9595 10.1324 17.7884 9.92687 17.5385C8.93249 16.3281 9.1986 14.6922 9.27096 14.2474C9.38957 13.5186 9.66724 12.7959 10.196 11.9976C11.8308 9.5284 14.4535 8.46443 15.7137 7.97128C18.21 6.99425 20.3474 6.90778 21.9963 6.84096C23.6868 6.77253 25.1006 6.89183 26.101 7.02037C24.6627 5.30304 23.1828 4.3512 22.2575 3.85112C21.0597 3.20354 20.0827 2.92957 19.8295 2.86136C19.393 2.74345 18.277 2.47203 16.8071 2.49515C15.4564 2.51642 14.4556 2.77605 14.1589 2.8572C12.7828 3.23429 11.9397 3.77991 11.6676 3.9651C11.3434 4.18589 11.1818 4.33571 11.1173 4.39721C10.7252 4.77221 10.4473 5.2094 10.0741 6.14552C9.664 7.17412 9.45661 8.00758 9.28668 8.70187C9.12138 9.37696 9.01364 9.93091 8.94729 10.3013C8.82799 10.9674 8.71933 11.5745 8.665 12.4073C8.62037 13.0923 8.6361 13.5718 8.65829 14.2589C8.66684 14.5197 8.68187 14.8473 8.75424 15.2607C8.78082 15.4126 8.8162 15.611 8.89226 15.8611C8.90752 15.9113 9.03352 16.3256 9.26218 16.7256C9.64897 17.4021 10.1493 17.8268 10.485 18.0644L10.4852 18.0642Z" fill="url(#paint4_linear_0_1612)"/>
<path d="M11.7449 29.9663C12.1925 30.1177 12.7187 30.2622 13.3145 30.3662C13.7577 30.4434 14.1701 30.4862 14.5424 30.507C15.1664 30.5311 15.9064 30.5047 16.7249 30.3646C18.4933 30.062 20.227 28.9427 21.0769 28.3999C20.7012 29.066 19.5589 30.5838 18.2133 31.3479C17.8027 31.5812 17.406 31.7442 17.0485 31.8595C16.7635 31.946 16.3452 32.0373 15.8366 32.0248C15.1846 32.0089 14.6441 31.9028 14.3398 31.768C13.9711 31.6371 13.5803 31.3368 13.1549 31.0711C12.5696 30.7056 12.1157 30.3121 11.7451 29.9663H11.7449Z" fill="url(#paint5_linear_0_1612)"/>
<path d="M12.6513 16.2007C13.0534 16.4238 13.544 16.2414 13.78 16.1489C14.9069 15.7071 15.8548 15.238 16.6064 14.9309C17.0438 14.7522 17.5742 14.568 18.7209 14.429C19.9608 14.2787 21.3489 14.1106 23.1298 14.3067C23.8371 14.3846 24.8319 14.5446 25.9999 14.9071C26.5751 15.1587 27.6701 15.7293 28.6236 16.897C29.5153 17.9892 29.8644 19.0906 30.0094 19.6934C30.0572 20.2399 30.0715 21.2237 29.6704 22.3544C29.2513 23.5361 28.5637 24.2942 28.1822 24.7101C27.7457 25.1859 27.3009 25.5494 26.7626 25.9889C26.2711 26.3902 25.7808 26.6753 25.4666 26.8952C25.6631 26.8494 25.9007 26.8228 26.1121 26.7837C26.1944 26.7687 26.2739 26.7433 26.3488 26.7063C27.2012 26.2843 28.5482 25.4768 29.7627 24.0274C31.0019 22.5487 31.5015 21.1416 31.5826 20.8489C31.8513 19.8799 32.2147 18.0752 31.8377 15.8613C31.4816 13.7708 30.6255 12.2548 30.0764 11.4308C29.7005 10.9782 29.0827 10.3412 28.1723 9.80252C27.9494 9.67074 27.0047 9.12812 25.4386 8.8523C22.9003 8.40539 20.5962 8.98847 19.363 9.3933C18.5147 9.65594 17.4928 10.0545 16.405 10.6732C14.8213 11.5737 13.6732 12.6132 12.9026 13.4337C12.1364 14.2494 12.0613 15.5843 12.4224 16.0125C12.5195 16.1276 12.6508 16.2007 12.6508 16.2007H12.6513Z" fill="url(#paint6_linear_0_1612)"/>
<path d="M29.0559 17.4441C29.0582 18.1601 29.0018 19.0343 28.8071 20.0116C28.6506 20.7976 28.4379 21.4827 28.222 22.0544C27.9418 22.7771 27.4932 23.5833 27.0246 24.4344C26.4996 25.3881 25.9805 26.2213 25.4668 26.895C26.1315 26.5336 27.1462 25.8877 28.0594 24.8656C28.8356 23.9967 29.3648 23.2026 29.6552 22.5684C29.8533 22.0926 30.2775 20.8416 29.9638 19.3769C29.7742 18.4917 29.3322 17.8323 29.0559 17.4444V17.4441Z" fill="url(#paint7_linear_0_1612)"/>
<path d="M19.8411 14.2584C22.1644 13.9775 23.9298 14.3109 24.9325 14.5481C25.8187 14.7576 26.4027 15.0431 26.7923 15.284C27.0512 15.4442 27.2318 15.5818 27.3691 15.6884C27.8081 16.0296 28.428 16.5852 29.0557 17.4441C29.0721 18.0609 29.0453 18.8932 28.8654 19.8573C28.6287 21.1271 28.2467 22.0553 27.9219 22.7679C27.6075 23.4578 27.2207 24.2115 26.7446 25.0019C26.2459 25.8296 25.7366 26.5526 25.2532 27.1738C24.8171 27.6741 24.3217 28.1962 23.7603 28.7228C22.7798 29.643 21.8137 30.3761 20.9393 30.9566C20.4753 31.2093 19.9532 31.4644 19.3738 31.7036C18.5829 32.0303 17.8419 32.2629 17.1816 32.4308C16.6989 32.5038 16.0243 32.5429 15.2509 32.3824C13.5204 32.0234 12.462 30.9081 12.0807 30.4612L11.7173 29.9563L12.2153 30.3828C12.5269 30.6288 12.8705 30.8813 13.2469 31.1331C13.5051 31.3058 13.7578 31.4639 14.0024 31.6086C14.1266 31.6821 14.2584 31.7423 14.3955 31.7869C14.8158 31.9235 15.4754 32.0703 16.2749 31.9857C17.0841 31.9002 17.6912 31.6139 18.0343 31.4188C18.6188 31.0697 19.4168 30.5028 20.1828 29.6263C20.8214 28.8955 21.2366 28.179 21.5039 27.6244C21.8497 26.8973 22.2049 26.0291 22.5077 25.0292C22.8173 24.0071 23.0053 23.0682 23.1202 22.2576C23.199 21.6135 23.2589 20.9139 23.2857 20.1648C23.3164 19.3101 23.3 18.5148 23.2554 17.7897C23.1928 17.4728 23.0811 17.0652 22.873 16.6192C22.6518 16.1452 22.3928 15.7809 22.1787 15.5224C22.0155 15.3351 21.8007 15.1254 21.5244 14.9287C20.8817 14.4709 20.2344 14.3169 19.8409 14.2587L19.8411 14.2584Z" fill="url(#paint8_linear_0_1612)"/>
<path d="M21.5148 14.9354C21.6586 15.0401 21.8676 15.2112 22.0731 15.4611C23.0675 16.6714 22.8014 18.3074 22.729 18.7522C22.6104 19.4809 22.3328 20.2037 21.804 21.002C20.1692 23.4712 17.5465 24.5351 16.2863 25.0283C13.79 26.0053 11.6526 26.0918 10.0037 26.1586C8.31321 26.227 6.89944 26.1077 5.89905 25.9792C7.33733 27.6965 8.81722 28.6484 9.74247 29.1484C10.9403 29.796 11.9173 30.07 12.1705 30.1382C12.607 30.2561 13.723 30.5275 15.1929 30.5044C16.5436 30.4831 17.5445 30.2235 17.8411 30.1424C19.2172 29.7653 20.0603 29.2197 20.3325 29.0345C20.6566 28.8137 20.8182 28.6639 20.8827 28.6024C21.2748 28.2274 21.5527 27.7902 21.9259 26.854C22.336 25.8254 22.5434 24.992 22.7133 24.2977C22.8786 23.6226 22.9864 23.0687 23.0527 22.6983C23.172 22.0322 23.2807 21.4251 23.335 20.5923C23.3796 19.9073 23.3639 19.4278 23.3417 18.7406C23.3332 18.4798 23.3181 18.1522 23.2458 17.7389C23.2192 17.587 23.1838 17.3886 23.1077 17.1384C23.0925 17.0883 22.9665 16.674 22.7378 16.274C22.351 15.5975 21.8507 15.1728 21.515 14.9351L21.5148 14.9354Z" fill="url(#paint9_linear_0_1612)"/>
</g>
<path d="M38.3442 21.092L38.8482 21.54C39.1282 21.8013 39.4548 22.0533 39.8282 22.296C40.2202 22.52 40.6308 22.7253 41.0602 22.912C41.5082 23.08 41.9655 23.22 42.4322 23.332C42.8988 23.4253 43.3468 23.472 43.7762 23.472C44.2615 23.472 44.6628 23.3973 44.9802 23.248C45.2975 23.08 45.4562 22.8373 45.4562 22.52C45.4562 22.3147 45.3535 22.128 45.1482 21.96C44.9615 21.7733 44.7282 21.6147 44.4482 21.484C44.1868 21.3347 43.9162 21.2133 43.6362 21.12C43.3562 21.008 43.1322 20.924 42.9642 20.868C42.7588 20.7933 42.5722 20.728 42.4042 20.672C42.2362 20.616 42.0775 20.5693 41.9282 20.532C41.3122 20.3453 40.6962 20.1213 40.0802 19.86C39.4642 19.5987 38.9135 19.2907 38.4282 18.936C37.9428 18.5627 37.5508 18.1427 37.2522 17.676C36.9535 17.1907 36.8042 16.64 36.8042 16.024C36.8042 15.4267 36.9348 14.8853 37.1962 14.4C37.4762 13.896 37.8588 13.4667 38.3442 13.112C38.8295 12.7573 39.3988 12.4867 40.0522 12.3C40.7242 12.0947 41.4428 11.992 42.2082 11.992C42.6748 11.992 43.1695 12.02 43.6922 12.076C44.2335 12.132 44.7655 12.2253 45.2882 12.356C45.8108 12.468 46.3148 12.6173 46.8002 12.804C47.3042 12.972 47.7428 13.1867 48.1162 13.448L48.3122 13.56L46.9402 17.2L46.4922 17.004C46.1375 16.8733 45.7828 16.7333 45.4282 16.584C45.0735 16.416 44.7095 16.2573 44.3362 16.108C43.9628 15.9587 43.5988 15.8467 43.2442 15.772C42.8895 15.6973 42.5255 15.66 42.1522 15.66C41.3868 15.66 41.0042 15.94 41.0042 16.5C41.0042 16.836 41.2188 17.144 41.6482 17.424C42.0775 17.6853 42.5442 17.9 43.0482 18.068C43.6642 18.2547 44.3175 18.4693 45.0082 18.712C45.6988 18.936 46.3335 19.2347 46.9122 19.608C47.5095 19.9627 47.9948 20.4107 48.3682 20.952C48.7602 21.4747 48.9562 22.128 48.9562 22.912C48.9562 23.5467 48.7788 24.1253 48.4242 24.648C48.0695 25.1707 47.6028 25.6187 47.0242 25.992C46.4642 26.3467 45.8202 26.6267 45.0922 26.832C44.3642 27.0187 43.6175 27.112 42.8522 27.112C41.6762 27.112 40.5842 26.9253 39.5762 26.552C38.5868 26.1787 37.7188 25.6653 36.9722 25.012L36.8042 24.9L38.3442 21.092ZM60.8686 18.712C60.8126 17.8907 60.5326 17.228 60.0286 16.724C59.5246 16.22 58.7126 15.968 57.5926 15.968C57.1446 15.968 56.7433 16.052 56.3886 16.22C56.0526 16.3693 55.754 16.5747 55.4926 16.836C55.25 17.0973 55.054 17.396 54.9046 17.732C54.774 18.0493 54.69 18.376 54.6526 18.712H60.8686ZM64.4806 23.052L64.3126 23.36C64.0513 23.8453 63.7153 24.3213 63.3046 24.788C62.9126 25.2547 62.446 25.6653 61.9046 26.02C61.382 26.3747 60.7846 26.664 60.1126 26.888C59.4593 27.0933 58.75 27.196 57.9846 27.196H57.4526C56.37 27.196 55.3806 27.0093 54.4846 26.636C53.6073 26.2627 52.8513 25.7493 52.2166 25.096C51.582 24.424 51.0873 23.64 50.7326 22.744C50.3966 21.848 50.2286 20.8773 50.2286 19.832C50.2286 18.824 50.3966 17.8533 50.7326 16.92C51.0873 15.968 51.582 15.1373 52.2166 14.428C52.8513 13.7 53.6073 13.1213 54.4846 12.692C55.3806 12.2627 56.37 12.048 57.4526 12.048H57.9846C58.974 12.048 59.898 12.244 60.7566 12.636C61.634 13.028 62.39 13.56 63.0246 14.232C63.6593 14.904 64.154 15.6787 64.5086 16.556C64.882 17.4333 65.0686 18.3573 65.0686 19.328V21.064H54.6526C54.8206 21.624 55.1473 22.128 55.6326 22.576C56.118 23.0053 56.7433 23.22 57.5086 23.22H57.9286C58.3766 23.22 58.7873 23.1267 59.1606 22.94C59.5526 22.7533 59.8793 22.5107 60.1406 22.212L60.3366 21.988L64.4806 23.052ZM80.5561 23.052L80.3881 23.36C80.1081 23.864 79.7628 24.3493 79.3521 24.816C78.9415 25.2827 78.4655 25.6933 77.9241 26.048C77.3828 26.4027 76.7761 26.6827 76.1041 26.888C75.4321 27.0933 74.7041 27.196 73.9201 27.196C72.9121 27.196 71.9508 27.0093 71.0361 26.636C70.1215 26.244 69.3188 25.7213 68.6281 25.068C67.9561 24.396 67.4148 23.612 67.0041 22.716C66.6121 21.82 66.4161 20.868 66.4161 19.86V19.328C66.4161 18.5067 66.5748 17.6667 66.8921 16.808C67.2095 15.9493 67.6855 15.1747 68.3201 14.484C68.9548 13.7747 69.7481 13.196 70.7001 12.748C71.6521 12.2813 72.7721 12.048 74.0601 12.048C74.8255 12.048 75.5348 12.16 76.1881 12.384C76.8601 12.5893 77.4575 12.8693 77.9801 13.224C78.5215 13.5787 78.9881 13.9893 79.3801 14.456C79.7908 14.904 80.1268 15.3707 80.3881 15.856L80.5561 16.164L76.3841 17.2L76.1881 16.976C75.9268 16.6773 75.6001 16.4347 75.2081 16.248C74.8348 16.0613 74.4241 15.968 73.9761 15.968C73.4535 15.968 72.9775 16.0707 72.5481 16.276C72.1188 16.4813 71.7548 16.752 71.4561 17.088C71.1761 17.424 70.9521 17.7973 70.7841 18.208C70.6348 18.6187 70.5601 19.02 70.5601 19.412V19.776C70.5601 20.1867 70.6348 20.5973 70.7841 21.008C70.9335 21.4187 71.1575 21.792 71.4561 22.128C71.7548 22.4453 72.1095 22.7067 72.5201 22.912C72.9495 23.1173 73.4348 23.22 73.9761 23.22C74.4241 23.22 74.8348 23.136 75.2081 22.968C75.6001 22.7813 75.9268 22.5293 76.1881 22.212L76.3841 21.988L80.5561 23.052ZM82.122 26.496C82.1966 24.9093 82.2526 23.3413 82.29 21.792C82.3273 20.2427 82.346 18.6747 82.346 17.088C82.346 15.464 82.3086 13.8493 82.234 12.244C82.1593 10.6387 82.122 9.024 82.122 7.4V7.064H86.35V7.4C86.35 9.024 86.3126 10.6387 86.238 12.244C86.1633 13.8493 86.126 15.464 86.126 17.088C86.126 18.6747 86.1446 20.2427 86.182 21.792C86.2193 23.3413 86.2753 24.9093 86.35 26.496V26.832H82.122V26.496ZM95.6851 23.78C96.2264 23.78 96.7024 23.6587 97.1131 23.416C97.5238 23.1547 97.8598 22.828 98.1211 22.436C98.4011 22.044 98.6064 21.6147 98.7371 21.148C98.8864 20.6813 98.9611 20.2427 98.9611 19.832V19.16C98.9611 18.7493 98.8864 18.3107 98.7371 17.844C98.6064 17.3773 98.4011 16.948 98.1211 16.556C97.8598 16.164 97.5238 15.8467 97.1131 15.604C96.7024 15.3427 96.2264 15.212 95.6851 15.212C95.1438 15.212 94.6678 15.3427 94.2571 15.604C93.8464 15.8467 93.5011 16.164 93.2211 16.556C92.9411 16.948 92.7264 17.3773 92.5771 17.844C92.4464 18.3107 92.3811 18.7493 92.3811 19.16V19.832C92.3811 20.2427 92.4464 20.6813 92.5771 21.148C92.7264 21.6147 92.9411 22.044 93.2211 22.436C93.5011 22.828 93.8464 23.1547 94.2571 23.416C94.6678 23.6587 95.1438 23.78 95.6851 23.78ZM95.6291 27.14C94.6211 27.14 93.6691 26.9533 92.7731 26.58C91.8771 26.2067 91.0931 25.6933 90.4211 25.04C89.7491 24.3867 89.2171 23.6307 88.8251 22.772C88.4331 21.8947 88.2371 20.952 88.2371 19.944V19.216C88.2371 18.4133 88.3864 17.5827 88.6851 16.724C89.0024 15.8653 89.4784 15.0907 90.1131 14.4C90.7478 13.6907 91.5318 13.112 92.4651 12.664C93.4171 12.216 94.5184 11.992 95.7691 11.992C96.7771 11.992 97.7291 12.1787 98.6251 12.552C99.5211 12.9253 100.305 13.4387 100.977 14.092C101.649 14.7453 102.172 15.5107 102.545 16.388C102.937 17.2653 103.133 18.208 103.133 19.216V19.944C103.133 20.7467 102.974 21.5773 102.657 22.436C102.358 23.276 101.892 24.0507 101.257 24.76C100.641 25.4507 99.8664 26.02 98.9331 26.468C97.9998 26.916 96.8984 27.14 95.6291 27.14ZM112.373 23.192C112.915 23.192 113.391 23.0893 113.801 22.884C114.212 22.6787 114.567 22.408 114.865 22.072C115.164 21.736 115.388 21.3627 115.537 20.952C115.687 20.5413 115.761 20.1307 115.761 19.72V19.412C115.761 19.02 115.687 18.6187 115.537 18.208C115.388 17.7973 115.164 17.424 114.865 17.088C114.567 16.752 114.212 16.4813 113.801 16.276C113.391 16.0707 112.915 15.968 112.373 15.968C111.832 15.968 111.347 16.0707 110.917 16.276C110.507 16.4813 110.152 16.752 109.853 17.088C109.555 17.424 109.331 17.7973 109.181 18.208C109.032 18.6187 108.957 19.02 108.957 19.412V19.72C108.957 20.1307 109.032 20.5413 109.181 20.952C109.331 21.3627 109.555 21.736 109.853 22.072C110.152 22.408 110.507 22.6787 110.917 22.884C111.347 23.0893 111.832 23.192 112.373 23.192ZM105.009 26.496C105.065 24.9093 105.112 23.3413 105.149 21.792C105.205 20.2427 105.233 18.6747 105.233 17.088C105.233 15.464 105.196 13.8493 105.121 12.244C105.047 10.6387 105.009 9.024 105.009 7.4V7.064H109.153V13.028C109.153 13.14 109.153 13.252 109.153 13.364C109.153 13.4573 109.144 13.56 109.125 13.672C109.611 13.2053 110.18 12.8227 110.833 12.524C111.505 12.2067 112.271 12.048 113.129 12.048C114.529 12.048 115.677 12.2907 116.573 12.776C117.488 13.2427 118.207 13.8493 118.729 14.596C119.271 15.324 119.644 16.1267 119.849 17.004C120.073 17.8813 120.185 18.7307 120.185 19.552C120.185 20.5227 120.008 21.4653 119.653 22.38C119.299 23.2947 118.804 24.1067 118.169 24.816C117.553 25.5253 116.807 26.0947 115.929 26.524C115.071 26.9347 114.128 27.14 113.101 27.14C112.261 27.14 111.505 26.972 110.833 26.636C110.18 26.2813 109.592 25.88 109.069 25.432C109.125 25.7867 109.153 26.1413 109.153 26.496V26.832H105.009V26.496Z" fill="white"/>
<defs>
<linearGradient id="paint0_linear_0_1612" x1="1.95517" y1="2.67054" x2="37.7808" y2="3.03237" gradientUnits="userSpaceOnUse">
<stop offset="0.04" stop-color="#DF4044"/>
<stop offset="0.25" stop-color="#EA674E"/>
<stop offset="0.59" stop-color="#FFAD61"/>
<stop offset="0.88" stop-color="#FA6483"/>
<stop offset="1" stop-color="#B159DE"/>
</linearGradient>
<linearGradient id="paint1_linear_0_1612" x1="19.662" y1="24.1095" x2="-3.86883" y2="8.74785" gradientUnits="userSpaceOnUse">
<stop stop-color="#B159DE"/>
<stop offset="0.29" stop-color="#FA6483"/>
<stop offset="0.71" stop-color="#FFAD61"/>
<stop offset="0.96" stop-color="#DF4044"/>
</linearGradient>
<linearGradient id="paint2_linear_0_1612" x1="1.19236" y1="17.2684" x2="9.38876" y2="-5.4754" gradientUnits="userSpaceOnUse">
<stop offset="0.04" stop-color="#DF4044"/>
<stop offset="0.15" stop-color="#EA674E"/>
<stop offset="0.32" stop-color="#FFAD61"/>
<stop offset="0.74" stop-color="#FA6483"/>
<stop offset="1" stop-color="#B159DE"/>
</linearGradient>
<linearGradient id="paint3_linear_0_1612" x1="14.5841" y1="-1.95834" x2="7.74463" y2="21.7082" gradientUnits="userSpaceOnUse">
<stop stop-color="#B159DE"/>
<stop offset="0.29" stop-color="#FA6483"/>
<stop offset="0.71" stop-color="#FFAD61"/>
<stop offset="0.96" stop-color="#DF4044"/>
</linearGradient>
<linearGradient id="paint4_linear_0_1612" x1="7.91684" y1="18.5312" x2="28.1094" y2="-5.71443" gradientUnits="userSpaceOnUse">
<stop offset="0.04" stop-color="#DF4044"/>
<stop offset="0.29" stop-color="#FFAD61"/>
<stop offset="0.71" stop-color="#FA6483"/>
<stop offset="1" stop-color="#B159DE"/>
</linearGradient>
<linearGradient id="paint5_linear_0_1612" x1="9.19916" y1="30.7422" x2="23.2761" y2="29.9459" gradientUnits="userSpaceOnUse">
<stop stop-color="#1155C8"/>
<stop offset="0.05" stop-color="#0F5CCB"/>
<stop offset="0.13" stop-color="#0B71D3"/>
<stop offset="0.22" stop-color="#0594E2"/>
<stop offset="0.29" stop-color="#00B4EF"/>
<stop offset="0.71" stop-color="#42B079"/>
<stop offset="1" stop-color="#F5C53D"/>
</linearGradient>
<linearGradient id="paint6_linear_0_1612" x1="17.9316" y1="8.45325" x2="30.2352" y2="27.9945" gradientUnits="userSpaceOnUse">
<stop stop-color="#F5C53D"/>
<stop offset="0.08" stop-color="#B6BD51"/>
<stop offset="0.17" stop-color="#77B666"/>
<stop offset="0.23" stop-color="#50B174"/>
<stop offset="0.27" stop-color="#42B079"/>
<stop offset="0.33" stop-color="#3AB086"/>
<stop offset="0.45" stop-color="#26B1A9"/>
<stop offset="0.61" stop-color="#07B3E2"/>
<stop offset="0.64" stop-color="#00B4EF"/>
<stop offset="0.7" stop-color="#01A9EA"/>
<stop offset="0.8" stop-color="#068DDF"/>
<stop offset="0.94" stop-color="#0F5FCC"/>
<stop offset="0.96" stop-color="#1155C8"/>
</linearGradient>
<linearGradient id="paint7_linear_0_1612" x1="31.0553" y1="22.9457" x2="15.133" y2="19.6888" gradientUnits="userSpaceOnUse">
<stop stop-color="#1155C8"/>
<stop offset="0.05" stop-color="#0F5CCB"/>
<stop offset="0.13" stop-color="#0B71D3"/>
<stop offset="0.22" stop-color="#0594E2"/>
<stop offset="0.29" stop-color="#00B4EF"/>
<stop offset="0.71" stop-color="#42B079"/>
<stop offset="1" stop-color="#F5C53D"/>
</linearGradient>
<linearGradient id="paint8_linear_0_1612" x1="13.6989" y1="36.0795" x2="27.8844" y2="11.7615" gradientUnits="userSpaceOnUse">
<stop stop-color="#F5C53D"/>
<stop offset="0.08" stop-color="#B6BD51"/>
<stop offset="0.17" stop-color="#77B666"/>
<stop offset="0.23" stop-color="#50B174"/>
<stop offset="0.27" stop-color="#42B079"/>
<stop offset="0.33" stop-color="#3AB086"/>
<stop offset="0.45" stop-color="#26B1A9"/>
<stop offset="0.61" stop-color="#07B3E2"/>
<stop offset="0.64" stop-color="#00B4EF"/>
<stop offset="0.7" stop-color="#01A9EA"/>
<stop offset="0.8" stop-color="#068DDF"/>
<stop offset="0.94" stop-color="#0F5FCC"/>
<stop offset="0.96" stop-color="#1155C8"/>
</linearGradient>
<linearGradient id="paint9_linear_0_1612" x1="2.57166" y1="35.5445" x2="28.699" y2="15.6414" gradientUnits="userSpaceOnUse">
<stop stop-color="#F5C53D"/>
<stop offset="0.08" stop-color="#B6BD51"/>
<stop offset="0.17" stop-color="#77B666"/>
<stop offset="0.23" stop-color="#50B174"/>
<stop offset="0.27" stop-color="#42B079"/>
<stop offset="0.33" stop-color="#3AB086"/>
<stop offset="0.45" stop-color="#26B1A9"/>
<stop offset="0.61" stop-color="#07B3E2"/>
<stop offset="0.64" stop-color="#00B4EF"/>
<stop offset="0.7" stop-color="#01A9EA"/>
<stop offset="0.8" stop-color="#068DDF"/>
<stop offset="0.94" stop-color="#0F5FCC"/>
<stop offset="0.96" stop-color="#1155C8"/>
</linearGradient>
<clipPath id="clip0_0_1612">
<rect width="32" height="31.9891" fill="white" transform="translate(0 0.505432)"/>
</clipPath>
</defs>
</svg>
