<svg width="25" height="25" viewBox="0 0 25 25" fill="none" xmlns="http://www.w3.org/2000/svg">
<path d="M13.3795 7.82979H8.51704M13.3795 10.2606H8.51704M10.9483 15.1223L8.51704 12.6915H9.73267C10.3775 12.6915 10.9959 12.4354 11.4518 11.9795C11.9078 11.5236 12.1639 10.9053 12.1639 10.2606C12.1639 9.61594 11.9078 8.99764 11.4518 8.54177C10.9959 8.0859 10.3775 7.82979 9.73267 7.82979M18.242 10.8684C18.242 11.826 18.0534 12.7743 17.6868 13.6591C17.3203 14.5439 16.783 15.3478 16.1058 16.025C15.4285 16.7021 14.6244 17.2393 13.7395 17.6058C12.8546 17.9723 11.9061 18.1609 10.9483 18.1609C9.99046 18.1609 9.04201 17.9723 8.15709 17.6058C7.27218 17.2393 6.46812 16.7021 5.79083 16.025C5.11354 15.3478 4.57629 14.5439 4.20974 13.6591C3.8432 12.7743 3.65454 11.826 3.65454 10.8684C3.65454 8.93425 4.42299 7.07936 5.79083 5.71174C7.15867 4.34413 9.01387 3.57581 10.9483 3.57581C12.8827 3.57581 14.7379 4.34413 16.1058 5.71174C17.4736 7.07936 18.242 8.93425 18.242 10.8684Z" stroke="#85868B" stroke-width="1.5" stroke-linecap="round" stroke-linejoin="round"/>
<path d="M13.1992 21.5978C14.2792 23.0506 16.0432 24 18.0592 24C21.3352 24 23.9992 21.4605 23.9992 18.3376C23.9992 16.4387 23.0152 14.7571 21.5152 13.7275" stroke="#85868B" stroke-width="1.5" stroke-linecap="round" stroke-linejoin="round"/>
</svg>
