<svg width="24" height="24" viewBox="0 0 24 24" fill="none" xmlns="http://www.w3.org/2000/svg">
<path d="M18.9393 5.42L13.7693 2.43C12.7793 1.86 11.2293 1.86 10.2393 2.43L5.01935 5.44C2.94935 6.84 2.82935 7.05 2.82935 9.28V14.71C2.82935 16.94 2.94935 17.16 5.05935 18.58L10.2293 21.57C10.7293 21.86 11.3693 22 11.9993 22C12.6293 22 13.2693 21.86 13.7593 21.57L18.9793 18.56C21.0493 17.16 21.1693 16.95 21.1693 14.72V9.28C21.1693 7.05 21.0493 6.84 18.9393 5.42ZM11.9993 15.25C10.2093 15.25 8.74935 13.79 8.74935 12C8.74935 10.21 10.2093 8.75 11.9993 8.75C13.7893 8.75 15.2493 10.21 15.2493 12C15.2493 13.79 13.7893 15.25 11.9993 15.25Z" fill="#782FF8"/>
</svg>
