<svg width="168" height="117" viewBox="0 0 168 117" fill="none" xmlns="http://www.w3.org/2000/svg">
<g clip-path="url(#clip0_0_2790)">
<path d="M89.0089 5.51599C88.1951 5.24066 87.2384 4.97793 86.1551 4.78877C85.3493 4.64837 84.5993 4.57061 83.9226 4.53277C82.788 4.48906 81.4424 4.53698 79.9544 4.79171C76.7391 5.34196 73.5868 7.37692 72.0415 8.36392C72.7246 7.15287 74.8016 4.39321 77.2481 3.00393C77.9947 2.57979 78.716 2.28343 79.3659 2.07368C79.8842 1.91646 80.6446 1.75042 81.5694 1.77312C82.7548 1.80212 83.7376 1.99507 84.2908 2.24014C84.9613 2.47806 85.6717 3.02411 86.4451 3.5071C87.5095 4.17168 88.3346 4.88714 89.0085 5.51599H89.0089Z" fill="url(#paint0_linear_0_2790)"/>
<path d="M87.3613 30.5444C86.6302 30.1388 85.7382 30.4704 85.3091 30.6386C83.2602 31.4419 81.5368 32.2948 80.1702 32.853C79.3749 33.178 78.4106 33.513 76.3256 33.7656C74.0712 34.0388 71.5474 34.3444 68.3093 33.988C67.0235 33.8463 65.2147 33.5554 63.091 32.8963C62.0452 32.439 60.0543 31.4015 58.3208 29.2783C56.6995 27.2925 56.0647 25.2899 55.8012 24.1941C55.7141 23.2003 55.6881 21.4117 56.4174 19.3557C57.1795 17.2073 58.4297 15.8289 59.1233 15.0727C59.9169 14.2076 60.7257 13.5468 61.7043 12.7477C62.5979 12.0179 63.4895 11.4996 64.0608 11.0999C63.7035 11.1831 63.2713 11.2315 62.8871 11.3025C62.7375 11.3298 62.5929 11.3761 62.4567 11.4433C60.9068 12.2105 58.4578 13.6788 56.2497 16.314C53.9966 19.0026 53.0882 21.5609 52.9406 22.0931C52.4522 23.8548 51.7914 27.1361 52.477 31.1615C53.1243 34.9624 54.6809 37.7187 55.6793 39.2168C56.3628 40.0399 57.486 41.198 59.1413 42.1774C59.5466 42.417 61.2641 43.4036 64.1116 43.9051C68.7268 44.7176 72.9161 43.6575 75.1582 42.9214C76.7005 42.4439 78.5585 41.7192 80.5363 40.5943C83.4158 38.957 85.5033 37.0671 86.9043 35.5753C88.2974 34.0922 88.434 31.6651 87.7774 30.8866C87.6009 30.6772 87.3621 30.5444 87.3621 30.5444H87.3613Z" fill="url(#paint1_linear_0_2790)"/>
<path d="M57.5346 28.2833C57.5304 26.9814 57.6329 25.3921 57.9869 23.6152C58.2715 22.186 58.6582 20.9405 59.0508 19.9009C59.5603 18.5869 60.3758 17.1211 61.2278 15.5738C62.1825 13.8398 63.1262 12.3248 64.0602 11.0999C62.8517 11.7569 61.0067 12.9314 59.3463 14.7898C57.9352 16.3695 56.973 17.8134 56.445 18.9665C56.0848 19.8316 55.3134 22.1061 55.8838 24.7691C56.2285 26.3787 57.0322 27.5775 57.5346 28.2829V28.2833Z" fill="url(#paint2_linear_0_2790)"/>
<path d="M74.2885 34.0747C70.0643 34.5854 66.8544 33.9793 65.0313 33.548C63.4201 33.1672 62.3583 32.648 61.65 32.21C61.1792 31.9187 60.8509 31.6686 60.6012 31.4748C59.8029 30.8543 58.6759 29.8442 57.5346 28.2826C57.5048 27.1611 57.5536 25.6478 57.8806 23.8949C58.3111 21.5863 59.0055 19.8985 59.5961 18.603C60.1678 17.3486 60.871 15.9783 61.7366 14.5411C62.6433 13.0362 63.5693 11.7217 64.4483 10.5922C65.2411 9.68256 66.1419 8.7334 67.1625 7.77582C68.9453 6.10279 70.702 4.76983 72.2918 3.71431C73.1354 3.25486 74.0846 2.79121 75.138 2.35614C76.576 1.76217 77.9233 1.33929 79.1238 1.03411C80.0015 0.901275 81.2282 0.830234 82.6343 1.12196C85.7806 1.77478 87.705 3.80259 88.3982 4.61514L89.059 5.53321L88.1536 4.75764C87.5869 4.31038 86.9623 3.85135 86.2779 3.39358C85.8084 3.07957 85.3489 2.79205 84.9042 2.5289C84.6785 2.39523 84.4389 2.28594 84.1896 2.20481C83.4254 1.95637 82.2261 1.68945 80.7725 1.8433C79.3012 1.99883 78.1974 2.51923 77.5736 2.87402C76.5109 3.50876 75.0598 4.53948 73.6672 6.13306C72.5061 7.46181 71.7512 8.7645 71.2652 9.77294C70.6364 11.095 69.9907 12.6734 69.44 14.4915C68.8772 16.3499 68.5354 18.0569 68.3265 19.5307C68.1832 20.7018 68.0743 21.9738 68.0255 23.3358C67.9696 24.8899 67.9995 26.3359 68.0806 27.6542C68.1945 28.2305 68.3976 28.9716 68.7759 29.7824C69.1782 30.6442 69.649 31.3067 70.0382 31.7766C70.335 32.1171 70.7255 32.4984 71.2278 32.8561C72.3964 33.6884 73.5734 33.9684 74.2889 34.0743L74.2885 34.0747Z" fill="url(#paint3_linear_0_2790)"/>
<path d="M71.2458 32.8437C70.9844 32.6533 70.6044 32.3422 70.2307 31.8878C68.4227 29.6872 68.9065 26.7128 69.0381 25.904C69.2538 24.579 69.7586 23.265 70.72 21.8135C73.6923 17.3241 78.4609 15.3896 80.7523 14.493C85.2909 12.7165 89.1771 12.5593 92.1751 12.4378C95.2487 12.3134 97.8192 12.5303 99.6381 12.764C97.0231 9.64159 94.3324 7.91098 92.6501 7.00174C90.4722 5.82432 88.6958 5.32619 88.2355 5.20219C87.4418 4.9878 85.4128 4.4943 82.7401 4.53634C80.2844 4.57501 78.4647 5.04708 77.9253 5.19462C75.4234 5.88023 73.8903 6.87227 73.3956 7.20898C72.8062 7.61042 72.5124 7.88281 72.3951 7.99463C71.6822 8.67645 71.1769 9.47135 70.4984 11.1734C69.7527 13.0436 69.3757 14.5589 69.0667 15.8213C68.7661 17.0487 68.5703 18.0559 68.4496 18.7293C68.2327 19.9404 68.0351 21.0442 67.9364 22.5584C67.8552 23.8039 67.8838 24.6757 67.9242 25.925C67.9397 26.3992 67.967 26.9948 68.0986 27.7464C68.147 28.0226 68.2113 28.3833 68.3496 28.8381C68.3773 28.9293 68.6064 29.6826 69.0221 30.4098C69.7254 31.6398 70.6351 32.412 71.2454 32.8441L71.2458 32.8437Z" fill="url(#paint4_linear_0_2790)"/>
<path d="M73.5361 54.484C74.3499 54.7594 75.3067 55.0221 76.3899 55.2113C77.1958 55.3517 77.9457 55.4294 78.6225 55.4673C79.757 55.511 81.1026 55.4631 82.5907 55.2083C85.806 54.6581 88.9582 52.6231 90.5035 51.6361C89.8204 52.8472 87.7434 55.6068 85.2969 56.9961C84.5504 57.4202 83.829 57.7166 83.1792 57.9264C82.6609 58.0836 81.9004 58.2496 80.9756 58.2269C79.7902 58.1979 78.8074 58.005 78.2542 57.7599C77.5838 57.522 76.8734 56.9759 76.0999 56.4929C75.0356 55.8283 74.2104 55.1129 73.5366 54.484H73.5361Z" fill="url(#paint5_linear_0_2790)"/>
<path d="M75.1842 29.4558C75.9152 29.8615 76.8072 29.5298 77.2364 29.3617C79.2852 28.5584 81.0087 27.7055 82.3753 27.1472C83.1706 26.8223 84.1349 26.4873 86.2199 26.2346C88.4742 25.9614 90.9981 25.6558 94.2361 26.0123C95.522 26.1539 97.3308 26.4448 99.4544 27.1039C100.5 27.5613 102.491 28.5987 104.225 30.722C105.846 32.7077 106.481 34.7103 106.744 35.8062C106.831 36.7999 106.857 38.5886 106.128 40.6445C105.366 42.793 104.116 44.1713 103.422 44.9276C102.629 45.7927 101.82 46.4535 100.841 47.2526C99.9475 47.9823 99.0559 48.5006 98.4847 48.9004C98.842 48.8171 99.2741 48.7688 99.6583 48.6978C99.8079 48.6704 99.9525 48.6242 100.089 48.5569C101.639 47.7898 104.088 46.3215 106.296 43.6862C108.549 40.9976 109.457 38.4393 109.605 37.9072C110.093 36.1454 110.754 32.8641 110.068 28.8388C109.421 25.0379 107.865 22.2816 106.866 20.7834C106.183 19.9604 105.059 18.8023 103.404 17.8228C102.999 17.5832 101.281 16.5967 98.4338 16.0952C93.8187 15.2826 89.6294 16.3428 87.3872 17.0788C85.8449 17.5563 83.9869 18.281 82.0091 19.4059C79.1297 21.0432 77.0422 22.9331 75.6411 24.425C74.248 25.908 74.1114 28.3352 74.768 29.1137C74.9446 29.323 75.1833 29.4558 75.1833 29.4558H75.1842Z" fill="url(#paint6_linear_0_2790)"/>
<path d="M105.011 31.716C105.015 33.0179 104.912 34.6072 104.558 36.3841C104.274 37.8133 103.887 39.0588 103.495 40.0984C102.985 41.4124 102.17 42.8782 101.317 44.4255C100.363 46.1595 99.4191 47.6745 98.4851 48.8994C99.6936 48.2424 101.539 47.0679 103.199 45.2095C104.61 43.6298 105.572 42.1859 106.1 41.0328C106.461 40.1677 107.232 37.8932 106.661 35.2302C106.317 33.6206 105.513 32.4218 105.011 31.7164V31.716Z" fill="url(#paint7_linear_0_2790)"/>
<path d="M88.2565 25.9245C92.4807 25.4138 95.6906 26.02 97.5137 26.4512C99.1249 26.8321 100.187 27.3512 100.895 27.7892C101.366 28.0806 101.694 28.3307 101.944 28.5245C102.742 29.1449 103.869 30.155 105.01 31.7167C105.04 32.8382 104.991 34.3515 104.664 36.1044C104.234 38.413 103.54 40.1007 102.949 41.3963C102.377 42.6506 101.674 44.021 100.808 45.4582C99.9017 46.9631 98.9757 48.2775 98.0967 49.407C97.3039 50.3167 96.4031 51.2658 95.3825 52.2234C93.5997 53.8965 91.843 55.2294 90.2532 56.2849C89.4096 56.7444 88.4604 57.208 87.407 57.6431C85.9689 58.2371 84.6217 58.66 83.4211 58.9651C82.5434 59.098 81.3168 59.169 79.9107 58.8773C76.7644 58.2245 74.84 56.1967 74.1468 55.3841L73.486 54.466L74.3914 55.2416C74.9581 55.6889 75.5827 56.1479 76.2671 56.6057C76.7366 56.9197 77.1961 57.2072 77.6408 57.4703C77.8665 57.604 78.1061 57.7133 78.3554 57.7944C79.1196 58.0429 80.3189 58.3098 81.7725 58.1559C83.2438 58.0004 84.3476 57.48 84.9714 57.1252C86.0341 56.4905 87.4852 55.4598 88.8778 53.8662C90.0389 52.5374 90.7938 51.2347 91.2798 50.2263C91.9086 48.9043 92.5543 47.3258 93.105 45.5078C93.6678 43.6494 94.0096 41.9423 94.2185 40.4685C94.3618 39.2974 94.4707 38.0254 94.5195 36.6634C94.5754 35.1094 94.5455 33.6633 94.4644 32.3451C94.3505 31.7688 94.1474 31.0277 93.7691 30.2168C93.3668 29.3551 92.896 28.6926 92.5068 28.2226C92.21 27.8821 91.8195 27.5009 91.3172 27.1432C90.1486 26.3108 88.9716 26.0309 88.2561 25.925L88.2565 25.9245Z" fill="url(#paint8_linear_0_2790)"/>
<path d="M91.2994 27.155C91.5609 27.3454 91.9409 27.6565 92.3146 28.1109C94.1225 30.3115 93.6387 33.2859 93.5071 34.0947C93.2915 35.4197 92.7867 36.7337 91.8253 38.1852C88.8529 42.6746 84.0844 44.6091 81.793 45.5057C77.2544 47.2822 73.3682 47.4394 70.3702 47.5609C67.2965 47.6853 64.726 47.4684 62.9072 47.2347C65.5222 50.3571 68.2129 52.0877 69.8952 52.997C72.0731 54.1744 73.8495 54.6725 74.3098 54.7965C75.1034 55.0109 77.1325 55.5044 79.8051 55.4624C82.2609 55.4237 84.0806 54.9516 84.6199 54.8041C87.1219 54.1185 88.6549 53.1264 89.1497 52.7897C89.7391 52.3883 90.0329 52.1159 90.1502 52.0041C90.8631 51.3222 91.3684 50.5273 92.0468 48.8253C92.7925 46.9551 93.1696 45.4397 93.4786 44.1774C93.7791 42.95 93.975 41.9428 94.0956 41.2694C94.3125 40.0583 94.5101 38.9545 94.6089 37.4403C94.69 36.1948 94.6614 35.323 94.6211 34.0737C94.6055 33.5995 94.5782 33.0039 94.4466 32.2523C94.3983 31.9761 94.334 31.6154 94.1957 31.1606C94.1679 31.0694 93.9389 30.3161 93.5231 29.5889C92.8199 28.3589 91.9102 27.5867 91.2998 27.1546L91.2994 27.155Z" fill="url(#paint9_linear_0_2790)"/>
</g>
<path d="M15.1614 95.872L16.0254 96.64C16.5054 97.088 17.0654 97.52 17.7054 97.936C18.3774 98.32 19.0814 98.672 19.8174 98.992C20.5854 99.28 21.3694 99.52 22.1694 99.712C22.9694 99.872 23.7374 99.952 24.4734 99.952C25.3054 99.952 25.9934 99.824 26.5374 99.568C27.0814 99.28 27.3534 98.864 27.3534 98.32C27.3534 97.968 27.1774 97.648 26.8254 97.36C26.5054 97.04 26.1054 96.768 25.6254 96.544C25.1774 96.288 24.7134 96.08 24.2334 95.92C23.7534 95.728 23.3694 95.584 23.0814 95.488C22.7294 95.36 22.4094 95.248 22.1214 95.152C21.8334 95.056 21.5614 94.976 21.3054 94.912C20.2494 94.592 19.1934 94.208 18.1374 93.76C17.0814 93.312 16.1374 92.784 15.3054 92.176C14.4734 91.536 13.8014 90.816 13.2894 90.016C12.7774 89.184 12.5214 88.24 12.5214 87.184C12.5214 86.16 12.7454 85.232 13.1934 84.4C13.6734 83.536 14.3294 82.8 15.1614 82.192C15.9934 81.584 16.9694 81.12 18.0894 80.8C19.2414 80.448 20.4734 80.272 21.7854 80.272C22.5854 80.272 23.4334 80.32 24.3294 80.416C25.2574 80.512 26.1694 80.672 27.0654 80.896C27.9614 81.088 28.8254 81.344 29.6574 81.664C30.5214 81.952 31.2734 82.32 31.9134 82.768L32.2494 82.96L29.8974 89.2L29.1294 88.864C28.5214 88.64 27.9134 88.4 27.3054 88.144C26.6974 87.856 26.0734 87.584 25.4334 87.328C24.7934 87.072 24.1694 86.88 23.5614 86.752C22.9534 86.624 22.3294 86.56 21.6894 86.56C20.3774 86.56 19.7214 87.04 19.7214 88C19.7214 88.576 20.0894 89.104 20.8254 89.584C21.5614 90.032 22.3614 90.4 23.2254 90.688C24.2814 91.008 25.4014 91.376 26.5854 91.792C27.7694 92.176 28.8574 92.688 29.8494 93.328C30.8734 93.936 31.7054 94.704 32.3454 95.632C33.0174 96.528 33.3534 97.648 33.3534 98.992C33.3534 100.08 33.0494 101.072 32.4414 101.968C31.8334 102.864 31.0334 103.632 30.0414 104.272C29.0814 104.88 27.9774 105.36 26.7294 105.712C25.4814 106.032 24.2014 106.192 22.8894 106.192C20.8734 106.192 19.0014 105.872 17.2734 105.232C15.5774 104.592 14.0894 103.712 12.8094 102.592L12.5214 102.4L15.1614 95.872ZM53.7748 91.792C53.6788 90.384 53.1988 89.248 52.3348 88.384C51.4708 87.52 50.0788 87.088 48.1588 87.088C47.3908 87.088 46.7028 87.232 46.0948 87.52C45.5188 87.776 45.0068 88.128 44.5588 88.576C44.1428 89.024 43.8068 89.536 43.5508 90.112C43.3268 90.656 43.1828 91.216 43.1188 91.792H53.7748ZM59.9668 99.232L59.6788 99.76C59.2308 100.592 58.6548 101.408 57.9508 102.208C57.2788 103.008 56.4788 103.712 55.5508 104.32C54.6548 104.928 53.6308 105.424 52.4788 105.808C51.3588 106.16 50.1428 106.336 48.8308 106.336H47.9188C46.0628 106.336 44.3668 106.016 42.8308 105.376C41.3268 104.736 40.0308 103.856 38.9428 102.736C37.8548 101.584 37.0068 100.24 36.3988 98.704C35.8228 97.168 35.5348 95.504 35.5348 93.712C35.5348 91.984 35.8228 90.32 36.3988 88.72C37.0068 87.088 37.8548 85.664 38.9428 84.448C40.0308 83.2 41.3268 82.208 42.8308 81.472C44.3668 80.736 46.0628 80.368 47.9188 80.368H48.8308C50.5268 80.368 52.1108 80.704 53.5828 81.376C55.0868 82.048 56.3828 82.96 57.4708 84.112C58.5588 85.264 59.4068 86.592 60.0148 88.096C60.6548 89.6 60.9748 91.184 60.9748 92.848V95.824H43.1188C43.4068 96.784 43.9668 97.648 44.7988 98.416C45.6308 99.152 46.7028 99.52 48.0148 99.52H48.7348C49.5028 99.52 50.2068 99.36 50.8468 99.04C51.5188 98.72 52.0788 98.304 52.5268 97.792L52.8628 97.408L59.9668 99.232ZM87.5248 99.232L87.2368 99.76C86.7568 100.624 86.1648 101.456 85.4608 102.256C84.7568 103.056 83.9408 103.76 83.0128 104.368C82.0848 104.976 81.0448 105.456 79.8928 105.808C78.7408 106.16 77.4928 106.336 76.1488 106.336C74.4208 106.336 72.7728 106.016 71.2048 105.376C69.6368 104.704 68.2608 103.808 67.0768 102.688C65.9248 101.536 64.9968 100.192 64.2928 98.656C63.6208 97.12 63.2848 95.488 63.2848 93.76V92.848C63.2848 91.44 63.5568 90 64.1008 88.528C64.6448 87.056 65.4608 85.728 66.5488 84.544C67.6368 83.328 68.9968 82.336 70.6288 81.568C72.2608 80.768 74.1808 80.368 76.3888 80.368C77.7008 80.368 78.9168 80.56 80.0368 80.944C81.1888 81.296 82.2128 81.776 83.1088 82.384C84.0368 82.992 84.8368 83.696 85.5088 84.496C86.2128 85.264 86.7888 86.064 87.2368 86.896L87.5248 87.424L80.3728 89.2L80.0368 88.816C79.5888 88.304 79.0288 87.888 78.3568 87.568C77.7168 87.248 77.0128 87.088 76.2448 87.088C75.3488 87.088 74.5328 87.264 73.7968 87.616C73.0608 87.968 72.4368 88.432 71.9248 89.008C71.4448 89.584 71.0608 90.224 70.7728 90.928C70.5168 91.632 70.3888 92.32 70.3888 92.992V93.616C70.3888 94.32 70.5168 95.024 70.7728 95.728C71.0288 96.432 71.4128 97.072 71.9248 97.648C72.4368 98.192 73.0448 98.64 73.7488 98.992C74.4848 99.344 75.3168 99.52 76.2448 99.52C77.0128 99.52 77.7168 99.376 78.3568 99.088C79.0288 98.768 79.5888 98.336 80.0368 97.792L80.3728 97.408L87.5248 99.232ZM90.2091 105.136C90.3371 102.416 90.4331 99.728 90.4971 97.072C90.5611 94.416 90.5931 91.728 90.5931 89.008C90.5931 86.224 90.5291 83.456 90.4011 80.704C90.2731 77.952 90.2091 75.184 90.2091 72.4V71.824H97.4571V72.4C97.4571 75.184 97.3931 77.952 97.2651 80.704C97.1371 83.456 97.0731 86.224 97.0731 89.008C97.0731 91.728 97.1051 94.416 97.1691 97.072C97.2331 99.728 97.3291 102.416 97.4571 105.136V105.712H90.2091V105.136ZM113.46 100.48C114.388 100.48 115.204 100.272 115.908 99.856C116.612 99.408 117.188 98.848 117.636 98.176C118.116 97.504 118.468 96.768 118.692 95.968C118.948 95.168 119.076 94.416 119.076 93.712V92.56C119.076 91.856 118.948 91.104 118.692 90.304C118.468 89.504 118.116 88.768 117.636 88.096C117.188 87.424 116.612 86.88 115.908 86.464C115.204 86.016 114.388 85.792 113.46 85.792C112.532 85.792 111.716 86.016 111.012 86.464C110.308 86.88 109.716 87.424 109.236 88.096C108.756 88.768 108.388 89.504 108.132 90.304C107.908 91.104 107.796 91.856 107.796 92.56V93.712C107.796 94.416 107.908 95.168 108.132 95.968C108.388 96.768 108.756 97.504 109.236 98.176C109.716 98.848 110.308 99.408 111.012 99.856C111.716 100.272 112.532 100.48 113.46 100.48ZM113.364 106.24C111.636 106.24 110.004 105.92 108.468 105.28C106.932 104.64 105.588 103.76 104.436 102.64C103.284 101.52 102.372 100.224 101.7 98.752C101.028 97.248 100.692 95.632 100.692 93.904V92.656C100.692 91.28 100.948 89.856 101.46 88.384C102.004 86.912 102.82 85.584 103.908 84.4C104.996 83.184 106.34 82.192 107.94 81.424C109.572 80.656 111.46 80.272 113.604 80.272C115.332 80.272 116.964 80.592 118.5 81.232C120.036 81.872 121.38 82.752 122.532 83.872C123.684 84.992 124.58 86.304 125.22 87.808C125.892 89.312 126.228 90.928 126.228 92.656V93.904C126.228 95.28 125.956 96.704 125.412 98.176C124.9 99.616 124.1 100.944 123.012 102.16C121.956 103.344 120.628 104.32 119.028 105.088C117.428 105.856 115.54 106.24 113.364 106.24ZM142.069 99.472C142.997 99.472 143.813 99.296 144.517 98.944C145.221 98.592 145.829 98.128 146.341 97.552C146.853 96.976 147.237 96.336 147.493 95.632C147.749 94.928 147.877 94.224 147.877 93.52V92.992C147.877 92.32 147.749 91.632 147.493 90.928C147.237 90.224 146.853 89.584 146.341 89.008C145.829 88.432 145.221 87.968 144.517 87.616C143.813 87.264 142.997 87.088 142.069 87.088C141.141 87.088 140.309 87.264 139.573 87.616C138.869 87.968 138.261 88.432 137.749 89.008C137.237 89.584 136.853 90.224 136.597 90.928C136.341 91.632 136.213 92.32 136.213 92.992V93.52C136.213 94.224 136.341 94.928 136.597 95.632C136.853 96.336 137.237 96.976 137.749 97.552C138.261 98.128 138.869 98.592 139.573 98.944C140.309 99.296 141.141 99.472 142.069 99.472ZM129.445 105.136C129.541 102.416 129.621 99.728 129.685 97.072C129.781 94.416 129.829 91.728 129.829 89.008C129.829 86.224 129.765 83.456 129.637 80.704C129.509 77.952 129.445 75.184 129.445 72.4V71.824H136.549V82.048C136.549 82.24 136.549 82.432 136.549 82.624C136.549 82.784 136.533 82.96 136.501 83.152C137.333 82.352 138.309 81.696 139.429 81.184C140.581 80.64 141.893 80.368 143.365 80.368C145.765 80.368 147.733 80.784 149.269 81.616C150.837 82.416 152.069 83.456 152.965 84.736C153.893 85.984 154.533 87.36 154.885 88.864C155.269 90.368 155.461 91.824 155.461 93.232C155.461 94.896 155.157 96.512 154.549 98.08C153.941 99.648 153.093 101.04 152.005 102.256C150.949 103.472 149.669 104.448 148.165 105.184C146.693 105.888 145.077 106.24 143.317 106.24C141.877 106.24 140.581 105.952 139.429 105.376C138.309 104.768 137.301 104.08 136.405 103.312C136.501 103.92 136.549 104.528 136.549 105.136V105.712H129.445V105.136Z" fill="white"/>
<defs>
<linearGradient id="paint0_linear_0_2790" x1="55.7367" y1="4.85561" x2="120.874" y2="5.51347" gradientUnits="userSpaceOnUse">
<stop offset="0.04" stop-color="#DF4044"/>
<stop offset="0.25" stop-color="#EA674E"/>
<stop offset="0.59" stop-color="#FFAD61"/>
<stop offset="0.88" stop-color="#FA6483"/>
<stop offset="1" stop-color="#B159DE"/>
</linearGradient>
<linearGradient id="paint1_linear_0_2790" x1="87.9308" y1="43.8357" x2="45.1476" y2="15.9054" gradientUnits="userSpaceOnUse">
<stop stop-color="#B159DE"/>
<stop offset="0.29" stop-color="#FA6483"/>
<stop offset="0.71" stop-color="#FFAD61"/>
<stop offset="0.96" stop-color="#DF4044"/>
</linearGradient>
<linearGradient id="paint2_linear_0_2790" x1="54.3495" y1="31.3973" x2="69.2521" y2="-9.95503" gradientUnits="userSpaceOnUse">
<stop offset="0.04" stop-color="#DF4044"/>
<stop offset="0.15" stop-color="#EA674E"/>
<stop offset="0.32" stop-color="#FFAD61"/>
<stop offset="0.74" stop-color="#FA6483"/>
<stop offset="1" stop-color="#B159DE"/>
</linearGradient>
<linearGradient id="paint3_linear_0_2790" x1="78.6984" y1="-3.56083" x2="66.263" y2="39.4692" gradientUnits="userSpaceOnUse">
<stop stop-color="#B159DE"/>
<stop offset="0.29" stop-color="#FA6483"/>
<stop offset="0.71" stop-color="#FFAD61"/>
<stop offset="0.96" stop-color="#DF4044"/>
</linearGradient>
<linearGradient id="paint4_linear_0_2790" x1="66.5761" y1="33.6928" x2="103.29" y2="-10.3902" gradientUnits="userSpaceOnUse">
<stop offset="0.04" stop-color="#DF4044"/>
<stop offset="0.29" stop-color="#FFAD61"/>
<stop offset="0.71" stop-color="#FA6483"/>
<stop offset="1" stop-color="#B159DE"/>
</linearGradient>
<linearGradient id="paint5_linear_0_2790" x1="68.9076" y1="55.8948" x2="94.5019" y2="54.447" gradientUnits="userSpaceOnUse">
<stop stop-color="#1155C8"/>
<stop offset="0.05" stop-color="#0F5CCB"/>
<stop offset="0.13" stop-color="#0B71D3"/>
<stop offset="0.22" stop-color="#0594E2"/>
<stop offset="0.29" stop-color="#00B4EF"/>
<stop offset="0.71" stop-color="#42B079"/>
<stop offset="1" stop-color="#F5C53D"/>
</linearGradient>
<linearGradient id="paint6_linear_0_2790" x1="84.7848" y1="15.3696" x2="107.155" y2="50.8992" gradientUnits="userSpaceOnUse">
<stop stop-color="#F5C53D"/>
<stop offset="0.08" stop-color="#B6BD51"/>
<stop offset="0.17" stop-color="#77B666"/>
<stop offset="0.23" stop-color="#50B174"/>
<stop offset="0.27" stop-color="#42B079"/>
<stop offset="0.33" stop-color="#3AB086"/>
<stop offset="0.45" stop-color="#26B1A9"/>
<stop offset="0.61" stop-color="#07B3E2"/>
<stop offset="0.64" stop-color="#00B4EF"/>
<stop offset="0.7" stop-color="#01A9EA"/>
<stop offset="0.8" stop-color="#068DDF"/>
<stop offset="0.94" stop-color="#0F5FCC"/>
<stop offset="0.96" stop-color="#1155C8"/>
</linearGradient>
<linearGradient id="paint7_linear_0_2790" x1="108.646" y1="41.7189" x2="79.6963" y2="35.7973" gradientUnits="userSpaceOnUse">
<stop stop-color="#1155C8"/>
<stop offset="0.05" stop-color="#0F5CCB"/>
<stop offset="0.13" stop-color="#0B71D3"/>
<stop offset="0.22" stop-color="#0594E2"/>
<stop offset="0.29" stop-color="#00B4EF"/>
<stop offset="0.71" stop-color="#42B079"/>
<stop offset="1" stop-color="#F5C53D"/>
</linearGradient>
<linearGradient id="paint8_linear_0_2790" x1="77.0889" y1="65.5992" x2="102.881" y2="21.3847" gradientUnits="userSpaceOnUse">
<stop stop-color="#F5C53D"/>
<stop offset="0.08" stop-color="#B6BD51"/>
<stop offset="0.17" stop-color="#77B666"/>
<stop offset="0.23" stop-color="#50B174"/>
<stop offset="0.27" stop-color="#42B079"/>
<stop offset="0.33" stop-color="#3AB086"/>
<stop offset="0.45" stop-color="#26B1A9"/>
<stop offset="0.61" stop-color="#07B3E2"/>
<stop offset="0.64" stop-color="#00B4EF"/>
<stop offset="0.7" stop-color="#01A9EA"/>
<stop offset="0.8" stop-color="#068DDF"/>
<stop offset="0.94" stop-color="#0F5FCC"/>
<stop offset="0.96" stop-color="#1155C8"/>
</linearGradient>
<linearGradient id="paint9_linear_0_2790" x1="56.8574" y1="64.6262" x2="104.362" y2="28.4388" gradientUnits="userSpaceOnUse">
<stop stop-color="#F5C53D"/>
<stop offset="0.08" stop-color="#B6BD51"/>
<stop offset="0.17" stop-color="#77B666"/>
<stop offset="0.23" stop-color="#50B174"/>
<stop offset="0.27" stop-color="#42B079"/>
<stop offset="0.33" stop-color="#3AB086"/>
<stop offset="0.45" stop-color="#26B1A9"/>
<stop offset="0.61" stop-color="#07B3E2"/>
<stop offset="0.64" stop-color="#00B4EF"/>
<stop offset="0.7" stop-color="#01A9EA"/>
<stop offset="0.8" stop-color="#068DDF"/>
<stop offset="0.94" stop-color="#0F5FCC"/>
<stop offset="0.96" stop-color="#1155C8"/>
</linearGradient>
<clipPath id="clip0_0_2790">
<rect width="58.1818" height="58.1621" fill="white" transform="translate(52.1818 0.918854)"/>
</clipPath>
</defs>
</svg>
